<svg>
   <symbol id="arrow" viewBox="0 0 16 10" fill="" xmlns="http://www.w3.org/2000/svg">
      <path d="M7.11323 9.2309L0.324654 2.00808C-0.107404 1.54862 -0.107404 0.803689 0.324655 0.344454C0.756329 -0.114819 1.45646 -0.114819 1.8881 0.344454L7.89495 6.73553L13.9016 0.34464C14.3334 -0.114632 15.0335 -0.114632 15.4652 0.34464C15.897 0.803913 15.897 1.54881 15.4652 2.00827L8.6765 9.23108C8.46056 9.46072 8.17784 9.57541 7.89498 9.57541C7.61199 9.57541 7.32906 9.4605 7.11323 9.2309Z"/>
   </symbol>

   <symbol id="basket" viewBox="0 0 28 30" fill="" xmlns="http://www.w3.org/2000/svg">
      <path d="M6.21007 6.95988H25.7121C26.3649 6.95988 26.8427 7.57518 26.681 8.20761L25.141 14.2302C24.8014 15.5581 23.6051 16.487 22.2345 16.487H7.8608M0 1.49957H3.83163C4.81484 1.49957 5.65222 2.21422 5.80677 3.18521L8.36735 19.2733C8.52189 20.2443 9.35928 20.959 10.3425 20.959H24.5639

      M13.6377 26.5538C13.6377 27.6379 12.7975 28.4692 11.8188 28.4692C10.8401 28.4692 10 27.6379 10 26.5538C10 25.4697 10.8401 24.6385 11.8188 24.6385C12.7975 24.6385 13.6377 25.4697 13.6377 26.5538Z

      M24.9399 26.5538C24.9399 27.6379 24.0998 28.4692 23.1211 28.4692C22.1424 28.4692 21.3022 27.6379 21.3022 26.5538C21.3022 25.4697 22.1424 24.6385 23.1211 24.6385C24.0998 24.6385 24.9399 25.4697 24.9399 26.5538Z" stroke-width="1.5"/>
   </symbol>

   <symbol id="comparison" viewBox="0 0 26 25" fill="" xmlns="http://www.w3.org/2000/svg">
      <path d="M25.9558 12.5275L25.9337 12.5386L22.2036 3.25484H23.9056C24.2108 3.25484 24.4582 3.00741 24.4582 2.70223C24.4582 2.39706 24.2108 2.14963 23.9056 2.14963H13.5056V0.552604C13.5056 0.247428 13.2582 0 12.953 0C12.6479 0 12.4004 0.247428 12.4004 0.552604V2.1441H2.00595C1.70078 2.1441 1.45335 2.39153 1.45335 2.69671C1.45335 3.00188 1.70078 3.24931 2.00595 3.24931H3.77981L0.0442083 12.5275C0.0165781 12.5922 0.00158874 12.6617 0 12.732C0 15.2697 2.0572 17.3269 4.5949 17.3269C7.13259 17.3269 9.1898 15.2697 9.1898 12.732C9.18821 12.6617 9.17322 12.5922 9.14559 12.5275L5.41552 3.24378H12.4004V20.3303C9.76451 20.5292 7.70329 22.1318 7.70329 24.0714C7.70329 24.3766 7.95072 24.624 8.2559 24.624H17.6502C17.9553 24.624 18.2028 24.3766 18.2028 24.0714C18.2028 22.1318 16.1416 20.5292 13.5056 20.3303V3.24378H20.5624L16.8544 12.5275C16.8268 12.5922 16.8118 12.6617 16.8102 12.732C16.8102 15.2697 18.8674 17.3269 21.4051 17.3269C23.9428 17.3269 26 15.2697 26 12.732C25.9984 12.6617 25.9834 12.5922 25.9558 12.5275ZM4.59214 16.23C2.88058 16.2276 1.42295 14.9852 1.14942 13.2956H8.01275C7.74059 14.977 6.29533 16.2168 4.59214 16.23ZM7.81382 12.1904H1.38151L4.60319 4.17216L7.81382 12.1904ZM16.9981 23.5188H8.90244C9.31137 22.3307 10.9968 21.4134 12.9475 21.4134C14.8982 21.4134 16.5892 22.3307 16.9981 23.5188ZM21.3802 4.17768L24.5909 12.1904H18.1586L21.3802 4.17768ZM21.3802 16.23V16.2355C19.6752 16.2219 18.2294 14.9792 17.9596 13.2956H24.823C24.5494 14.9852 23.0918 16.2276 21.3802 16.23Z"/>
   </symbol>

   <symbol id="favorites" viewBox="0 0 28 27" fill="" xmlns="http://www.w3.org/2000/svg">
      <path d="M20.1004 0C17.7169 0 15.4856 1.07339 14 2.87184C12.5144 1.07333 10.2832 0 7.89957 0C3.54375 0 0 3.52462 0 7.85705C0 11.2495 2.03385 15.1734 6.04492 19.5198C9.13175 22.8646 12.4897 25.4544 13.4454 26.1685L13.9998 26.5828L14.5543 26.1686C15.5099 25.4545 18.868 22.8647 21.9549 19.52C25.9661 15.1736 28 11.2496 28 7.85705C28 3.52462 24.4562 0 20.1004 0ZM20.5948 18.2782C18.0558 21.0293 15.3242 23.2533 13.9998 24.2783C12.6755 23.2533 9.944 21.0293 7.40498 18.2781C3.76837 14.3375 1.84615 10.734 1.84615 7.85705C1.84615 4.53717 4.56172 1.83622 7.89957 1.83622C10.0961 1.83622 12.1243 3.02694 13.1927 4.94377L14 6.3923L14.8073 4.94377C15.8756 3.027 17.9038 1.83622 20.1004 1.83622C23.4383 1.83622 26.1538 4.53711 26.1538 7.85705C26.1538 10.7341 24.2316 14.3377 20.5948 18.2782Z"/>
   </symbol>

   <symbol id="location" viewBox="0 0 17 25" fill="" xmlns="http://www.w3.org/2000/svg">
      <path d="M8.5 0C3.8131 0 0 3.85087 0 8.5842C0 10.1834 0.438647 11.7441 1.26881 13.0982L8.01616 24.0791C8.14541 24.2895 8.37311 24.4173 8.61801 24.4173C8.6199 24.4173 8.62174 24.4173 8.62363 24.4173C8.87065 24.4153 9.09883 24.2836 9.22571 24.0695L15.8011 12.9822C16.5854 11.6568 17 10.136 17 8.5842C17 3.85087 13.1869 0 8.5 0ZM14.5853 12.2477L8.60729 22.3278L2.47289 12.3444C1.78188 11.2174 1.40722 9.91714 1.40722 8.5842C1.40722 4.63976 4.59425 1.42116 8.5 1.42116C12.4058 1.42116 15.5881 4.63976 15.5881 8.5842C15.5881 9.87761 15.2381 11.1446 14.5853 12.2477Z

      M8.49671 3.61737C5.89284 3.61737 3.77441 5.64581 3.77441 8.13909C3.77441 10.6164 5.85836 12.6608 8.49671 12.6608C11.1676 12.6608 13.219 10.5892 13.219 8.13909C13.219 5.64581 11.1006 3.61737 8.49671 3.61737ZM8.49671 11.1636C6.75172 11.1636 5.33802 9.80544 5.33802 8.13909C5.33802 6.47691 6.76079 5.11456 8.49671 5.11456C10.2326 5.11456 11.6502 6.47691 11.6502 8.13909C11.6502 9.78113 10.2694 11.1636 8.49671 11.1636Z"/>

   </symbol>

   <symbol id="personal" viewBox="0 0 23 28" fill="" xmlns="http://www.w3.org/2000/svg">
      <path d="M11.4023 14.9052C11.4303 14.9052 11.4583 14.9052 11.4919 14.9052C11.5031 14.9052 11.5143 14.9052 11.5255 14.9052C11.5423 14.9052 11.5647 14.9052 11.5815 14.9052C13.2221 14.8766 14.5492 14.2866 15.5291 13.1581C17.6848 10.672 17.3265 6.41005 17.2873 6.00333C17.1473 2.95011 15.7362 1.48938 14.5716 0.8077C13.7036 0.297875 12.6901 0.0229135 11.5591 0H11.5199C11.5143 0 11.5031 0 11.4975 0H11.4639C10.8423 0 9.62167 0.103111 8.45139 0.784787C7.27551 1.46646 5.84206 2.9272 5.70207 6.00333C5.66288 6.41005 5.30452 10.672 7.46029 13.1581C8.43459 14.2866 9.76165 14.8766 11.4023 14.9052ZM7.19712 6.14654C7.19712 6.12936 7.20272 6.11217 7.20272 6.10072C7.3875 1.99347 10.2376 1.55239 11.4583 1.55239H11.4807C11.4919 1.55239 11.5087 1.55239 11.5255 1.55239C13.0373 1.58676 15.6074 2.21688 15.781 6.10072C15.781 6.1179 15.781 6.13509 15.7866 6.14654C15.7922 6.18664 16.1842 10.0819 14.4036 12.1327C13.698 12.9461 12.7573 13.3471 11.5199 13.3586C11.5087 13.3586 11.5031 13.3586 11.4919 13.3586C11.4807 13.3586 11.4751 13.3586 11.4639 13.3586C10.232 13.3471 9.2857 12.9461 8.58577 12.1327C6.81076 10.0934 7.19152 6.18091 7.19712 6.14654Z

      M22.9984 21.974C22.9984 21.9683 22.9984 21.9626 22.9984 21.9568C22.9984 21.911 22.9928 21.8652 22.9928 21.8136C22.9592 20.6794 22.8864 18.0272 20.4563 17.1794C20.4395 17.1737 20.4171 17.1679 20.4003 17.1622C17.8749 16.5034 15.7752 15.0141 15.7528 14.9969C15.4112 14.7506 14.9408 14.8365 14.7001 15.1859C14.4593 15.5353 14.5433 16.0165 14.8848 16.2628C14.98 16.3316 17.2086 17.9183 19.9971 18.6516C21.3018 19.127 21.4474 20.5534 21.4866 21.8595C21.4866 21.911 21.4866 21.9568 21.4922 22.0027C21.4978 22.5182 21.4642 23.3145 21.3746 23.7727C20.4675 24.2997 16.9118 26.1214 11.5028 26.1214C6.11612 26.1214 2.53807 24.294 1.62536 23.767C1.53577 23.3087 1.49658 22.5125 1.50777 21.9969C1.50777 21.9511 1.51337 21.9053 1.51337 21.8537C1.55257 20.5477 1.69815 19.1213 3.00283 18.6458C5.79135 17.9126 8.01993 16.3201 8.11512 16.2571C8.45668 16.0108 8.54067 15.5296 8.2999 15.1802C8.05912 14.8308 7.58877 14.7448 7.2472 14.9911C7.2248 15.0083 5.13621 16.4977 2.59967 17.1565C2.57727 17.1622 2.56047 17.1679 2.54367 17.1737C0.113513 18.0272 0.0407202 20.6794 0.00712354 21.8079C0.00712354 21.8595 0.00712341 21.9053 0.00152397 21.9511C0.00152397 21.9568 0.00152397 21.9626 0.00152397 21.9683C-0.00407547 22.2662 -0.0096748 23.7956 0.287096 24.5633C0.34309 24.7122 0.44388 24.8382 0.578267 24.9241C0.74625 25.0387 4.77225 27.6623 11.5084 27.6623C18.2445 27.6623 22.2705 25.033 22.4385 24.9241C22.5673 24.8382 22.6737 24.7122 22.7297 24.5633C23.0096 23.8014 23.004 22.2719 22.9984 21.974Z">
   </symbol>

   <symbol id="phone" viewBox="0 0 23 24" fill="" xmlns="http://www.w3.org/2000/svg">
      <path d="M22.1494 17.7016L19.3231 14.718C18.5439 13.8955 17.276 13.8955 16.4969 14.718L15.2122 16.0742C14.6219 16.6973 13.6614 16.6971 13.0713 16.0744L7.50303 10.1912C6.91135 9.56663 6.91126 8.55568 7.50303 7.93097C7.70995 7.71254 8.30412 7.0853 8.78768 6.57483C9.56346 5.75593 9.5743 4.42163 8.78693 3.59053L5.96142 0.617157C5.18222 -0.205359 3.91435 -0.205359 3.13724 0.615001C2.55573 1.22353 2.36817 1.41984 2.10743 1.6927C-0.702453 4.65891 -0.702453 9.4853 2.10729 12.4514L10.93 21.77C13.7464 24.7432 18.3049 24.7435 21.1216 21.77L22.1494 20.6851C22.9286 19.8625 22.9286 18.5241 22.1494 17.7016ZM4.07727 1.61166C4.33699 1.33749 4.75954 1.33744 5.0201 1.61241L7.84561 4.58578C8.10595 4.86061 8.10595 5.30541 7.84561 5.58029L7.37453 6.07754L3.60863 2.10206L4.07727 1.61166ZM11.8722 20.7756L3.0495 11.457C0.875572 9.16205 0.756082 5.55854 2.68201 3.11292L6.43698 7.07686C5.45033 8.2576 5.49145 10.0568 6.56074 11.1856L12.1288 17.0685C12.1288 17.0685 12.1289 17.0686 12.129 17.0687C13.1971 18.1963 14.9014 18.2425 16.0212 17.1995L19.7763 21.1636C17.467 23.1932 14.0611 23.0863 11.8722 20.7756ZM21.2074 19.6906L20.7363 20.1879L16.9679 16.2098L17.4389 15.7125C17.6987 15.4383 18.1213 15.4383 18.3811 15.7125L21.2073 18.6961C21.4671 18.9703 21.4671 19.4164 21.2074 19.6906Z"/>
   </symbol>

   <symbol id="search" viewBox="0 0 14 14" fill="" xmlns="http://www.w3.org/2000/svg">
      <path fill-rule="evenodd" clip-rule="evenodd" d="M5.66659 11C2.72107 11 0.333252 8.6122 0.333252 5.66668C0.333252 2.72116 2.72107 0.333344 5.66659 0.333344C8.6121 0.333344 10.9999 2.72116 10.9999 5.66668C10.9999 6.89915 10.5819 8.03397 9.87983 8.93709L13.4713 12.5286L12.5285 13.4714L8.93703 9.87991C8.0339 10.582 6.89907 11 5.66659 11ZM9.66659 5.66668C9.66659 7.87582 7.87572 9.66668 5.66659 9.66668C3.45745 9.66668 1.66659 7.87582 1.66659 5.66668C1.66659 3.45754 3.45745 1.66668 5.66659 1.66668C7.87572 1.66668 9.66659 3.45754 9.66659 5.66668Z"/>
</symbol>

</svg>